HIERARCHY
ROOT hip
{
  OFFSET 0 0 0
  CHANNELS 6 Xposition Yposition Zposition Zrotation Yrotation Xrotation
  JOINT abdomen
  {
    OFFSET 0 20.6881 -0.73152
    CHANNELS 3 Zrotation Xrotation Yrotation
    JOINT chest
    {
      OFFSET 0 11.7043 -0.48768
      CHANNELS 3 Zrotation Xrotation Yrotation
      JOINT neck
      {
        OFFSET 0 22.1894 -2.19456
        CHANNELS 3 Zrotation Xrotation Yrotation
        JOINT head
        {
          OFFSET -0.24384 7.07133 1.2192
          CHANNELS 3 Zrotation Xrotation Yrotation
          JOINT leftEye
          {
            OFFSET 4.14528 8.04674 8.04672
            CHANNELS 3 Zrotation Xrotation Yrotation
            End Site
            {
              OFFSET 1 0 0
            }
          }
          JOINT rightEye
          {
            OFFSET -3.6576 8.04674 8.04672
            CHANNELS 3 Zrotation Xrotation Yrotation
            End Site
            {
              OFFSET 1 0 0
            }
          }
        }
      }
      JOINT rCollar
      {
        OFFSET -2.68224 19.2634 -4.8768
        CHANNELS 3 Zrotation Xrotation Yrotation
        JOINT rShldr
        {
          OFFSET -8.77824 -1.95073 1.46304
          CHANNELS 3 Zrotation Xrotation Yrotation
          JOINT rForeArm
          {
            OFFSET -28.1742 -1.7115 0.48768
            CHANNELS 3 Zrotation Xrotation Yrotation
            JOINT rHand
            {
              OFFSET -22.5879 0.773209 7.07136
              CHANNELS 3 Zrotation Xrotation Yrotation
              JOINT rThumb1
              {
                OFFSET -1.2192 -0.487915 3.41376
                CHANNELS 3 Zrotation Xrotation Yrotation
                JOINT rThumb2
                {
                  OFFSET -3.37035 -0.52449 3.41376
                  CHANNELS 3 Zrotation Xrotation Yrotation
                  End Site
                  {
                    OFFSET -1.78271 -1.18214 1.43049
                  }
                }
              }
              JOINT rIndex1
              {
                OFFSET -7.75947 0.938293 5.60832
                CHANNELS 3 Zrotation Xrotation Yrotation
                JOINT rIndex2
                {
                  OFFSET -2.54057 -0.884171 1.56538
                  CHANNELS 3 Zrotation Xrotation Yrotation
                  End Site
                  {
                    OFFSET -1.62519 -0.234802 1.16502
                  }
                }
              }
              JOINT rMid1
              {
                OFFSET -8.24714 1.18213 3.41376
                CHANNELS 3 Zrotation Xrotation Yrotation
                JOINT rMid2
                {
                  OFFSET -3.10165 -0.590103 1.0647
                  CHANNELS 3 Zrotation Xrotation Yrotation
                  End Site
                  {
                    OFFSET -2.48547 -0.328903 0.83742
                  }
                }
              }
              JOINT rRing1
              {
                OFFSET -8.82822 0.546677 1.51678
                CHANNELS 3 Zrotation Xrotation Yrotation
                JOINT rRing2
                {
                  OFFSET -2.60934 -0.819778 -0.0198488
                  CHANNELS 3 Zrotation Xrotation Yrotation
                  End Site
                  {
                    OFFSET -2.33842 -0.294052 0.168128
                  }
                }
              }
              JOINT rPinky1
              {
                OFFSET -8.27202 -0.0477905 -0.4584
                CHANNELS 3 Zrotation Xrotation Yrotation
                JOINT rPinky2
                {
                  OFFSET -1.82734 -0.647385 -0.700984
                  CHANNELS 3 Zrotation Xrotation Yrotation
                  End Site
                  {
                    OFFSET -1.69225 -0.51767 -0.607171
                  }
                }
              }
            }
          }
        }
      }
      JOINT lCollar
      {
        OFFSET 2.68224 19.2634 -4.8768
        CHANNELS 3 Zrotation Xrotation Yrotation
        JOINT lShldr
        {
          OFFSET 8.77824 -1.95073 1.46304
          CHANNELS 3 Zrotation Xrotation Yrotation
          JOINT lForeArm
          {
            OFFSET 28.1742 -1.7115 0.48768
            CHANNELS 3 Zrotation Xrotation Yrotation
            JOINT lHand
            {
              OFFSET 22.5879 0.773209 7.07136
              CHANNELS 3 Zrotation Xrotation Yrotation
              JOINT lThumb1
              {
                OFFSET 1.2192 -0.487915 3.41376
                CHANNELS 3 Zrotation Xrotation Yrotation
                JOINT lThumb2
                {
                  OFFSET 3.37035 -0.52449 3.41376
                  CHANNELS 3 Zrotation Xrotation Yrotation
                  End Site
                  {
                    OFFSET 1.78271 -1.18214 1.43049
                  }
                }
              }
              JOINT lIndex1
              {
                OFFSET 7.75947 0.938293 5.60832
                CHANNELS 3 Zrotation Xrotation Yrotation
                JOINT lIndex2
                {
                  OFFSET 2.54057 -0.884171 1.56538
                  CHANNELS 3 Zrotation Xrotation Yrotation
                  End Site
                  {
                    OFFSET 1.62519 -0.234802 1.16502
                  }
                }
              }
              JOINT lMid1
              {
                OFFSET 8.24714 1.18213 3.41376
                CHANNELS 3 Zrotation Xrotation Yrotation
                JOINT lMid2
                {
                  OFFSET 3.10165 -0.590103 1.0647
                  CHANNELS 3 Zrotation Xrotation Yrotation
                  End Site
                  {
                    OFFSET 2.48547 -0.328903 0.83742
                  }
                }
              }
              JOINT lRing1
              {
                OFFSET 8.82822 0.546677 1.51678
                CHANNELS 3 Zrotation Xrotation Yrotation
                JOINT lRing2
                {
                  OFFSET 2.60934 -0.819778 -0.0198488
                  CHANNELS 3 Zrotation Xrotation Yrotation
                  End Site
                  {
                    OFFSET 2.33842 -0.294052 0.168128
                  }
                }
              }
              JOINT lPinky1
              {
                OFFSET 8.27202 -0.0477905 -0.4584
                CHANNELS 3 Zrotation Xrotation Yrotation
                JOINT lPinky2
                {
                  OFFSET 1.82734 -0.647385 -0.700984
                  CHANNELS 3 Zrotation Xrotation Yrotation
                  End Site
                  {
                    OFFSET 1.69225 -0.51767 -0.607171
                  }
                }
              }
            }
          }
        }
      }
    }
  }
  JOINT rButtock
  {
    OFFSET -8.77824 4.35084 1.2192
    CHANNELS 3 Zrotation Xrotation Yrotation
    JOINT rThigh
    {
      OFFSET 0 -1.70687 -2.19456
      CHANNELS 3 Zrotation Xrotation Yrotation
      JOINT rShin
      {
        OFFSET 0 -36.8199 0.73152
        CHANNELS 3 Zrotation Xrotation Yrotation
        JOINT rFoot
        {
          OFFSET 0.73152 -45.1104 -5.12064
          CHANNELS 3 Zrotation Xrotation Yrotation
          End Site
          {
            OFFSET -1.1221 -3.69964 12.103
          }
        }
      }
    }
  }
  JOINT lButtock
  {
    OFFSET 8.77824 4.35084 1.2192
    CHANNELS 3 Zrotation Xrotation Yrotation
    JOINT lThigh
    {
      OFFSET 0 -1.70687 -2.19456
      CHANNELS 3 Zrotation Xrotation Yrotation
      JOINT lShin
      {
        OFFSET 0 -36.8199 0.73152
        CHANNELS 3 Zrotation Xrotation Yrotation
        JOINT lFoot
        {
          OFFSET -0.73152 -45.1104 -5.12064
          CHANNELS 3 Zrotation Xrotation Yrotation
          End Site
          {
            OFFSET 1.1221 -3.69964 12.103
          }
        }
      }
    }
  }
}
MOTION
Frames:	8
Frame Time:	0.00833333
-5.0852 80.61120000000001 -22.8155 6.15489 6.761366 8.670078 -2.628667 1.51984 -120.015269 3.278718 3.600876 89.094303 -23.011635 15.764822 -97.581883 10.975163 28.373008 83.458208 0.000478 0.0 0.003091 0.000942 -0.0 -0.001321 -155.459945 -3.227843 161.777427 130.645178 -37.742506 159.370955 155.092433 55.330537 70.768132 -173.529791 10.069411 141.520419 -171.602736 -9.286525 89.94993 -117.058809 13.708124 54.134262 -46.20911 39.652375 36.318583 -67.693484 50.199353 47.95115 -6.64753 17.10863 4.326096 -170.033186 -25.723201 144.302253 0.005121 1.770331 0.556958 6.003145 33.717864 5.586632 -23.393604 -36.348001 -22.495626 -19.573653 -37.752995 -21.21929 120.449319 60.638024 -124.076719 82.3104 6.921772 -44.098378 174.696689 1.941717 138.397241 10.306947 -30.021542 7.521241 171.603803 -9.286003 -89.950446 77.803105 5.684593 -25.858126 -88.791285 -75.500325 -40.048483 -12.583447 7.156813 4.97899 -68.985492 -80.153461 -40.579754 -144.035681 -74.526214 -112.452346 0.007778 3.559372 -1.117359 -5.860159 33.712821 -5.585175 86.000241 -50.497572 84.371116 -17.051459 43.728281 -7.312229 0.009318 -0.000511 0.009318 -19.587649 -32.725973 -19.823948 -4.477643 61.121279 138.351382 24.227049 29.61191 -145.658086 0.002827 0.000953 0.001413 -13.253284 -29.569093 -6.861218 4.82332 40.037533 20.00933 -150.537744 -9.191725 5.372767
-5.191599999999999 80.34559999999999 -23.598 6.519934 7.623475 8.649889 -3.210933 2.539613 -103.0872 5.062118 2.328376 71.438103 -20.395458 19.157056 -125.966992 -1.124472 29.16453 116.793054 -0.000959 0.0 -0.00089 -0.000959 0.0 -0.00089 4.239139 -44.742708 -8.648541 105.823366 54.64119 -71.895055 -24.205346 -37.572967 82.2345 -1.606202 -17.183053 -3.067165 -166.630075 -4.30532 89.771893 -26.736121 -33.000801 6.864608 -145.337659 -6.264331 118.678534 -106.95512 51.81668 85.263034 0.540802 -1.589886 -0.296208 -163.42782 -5.229712 143.39798 -145.118337 0.227699 -179.197339 -151.394612 -30.389909 -174.190052 -87.576332 -50.20847 -85.929604 -126.021166 -30.164923 -124.964169 143.298644 38.837182 -147.736832 -7.493087 -77.044664 -75.719162 -123.524858 0.241059 -163.25255 55.373752 50.60151 -34.813748 4.303521 4.189189 -0.813516 89.989567 17.462286 -83.048534 149.817044 -14.317137 -120.600805 5.328569 28.057512 1.86263 0.571542 1.648289 -0.321994 163.723817 -6.174757 -143.494839 -0.000898 0.063801 -0.01986 76.984028 78.800707 -90.386541 152.347634 37.910858 147.688784 148.690336 13.666394 142.257461 179.99305 75.74996 0.007171 159.486643 36.997286 180.0 19.894809 -55.124068 -142.272122 -30.609657 12.056244 -14.141624 -179.995105 75.747852 -0.004319 161.845526 41.961539 109.157861 41.025722 -7.836755 -87.467954 74.229803 -14.79438 -3.200409
-5.3077 80.1415 -24.3448 6.82601 8.702561 8.470025 -6.441573 5.856229 0.0 3.350836 -8.535015 -31.699759 -17.107506 1.719142 -8.511751 19.908222 3.889486 -3.82078 -0.000309 -0.0 0.000987 -0.000309 -0.0 0.000987 -143.620824 38.233559 148.080929 -117.717869 33.022877 90.496901 -162.315899 59.834471 -93.387733 -6.809396 0.471985 -2.287211 -171.603154 -9.286397 89.949624 -137.969675 9.875714 69.357105 -27.16965 30.470014 19.889279 68.958294 -57.621283 24.187996 173.126621 -66.298103 137.617343 -156.066859 15.555246 139.619864 -13.618147 -53.680336 -25.680197 -151.814157 -23.312888 176.903544 -132.782704 -17.596663 -130.286334 -60.386914 -52.808881 -60.994801 -0.163084 -0.990051 0.218504 96.323585 -24.792209 -145.085607 177.771796 15.234068 141.619115 10.419758 -21.692532 5.972018 -81.276292 -49.995648 -32.240178 159.083562 -29.963849 -128.259589 26.598887 30.073477 -19.414338 101.423745 45.550715 -76.988662 152.826918 14.793668 -138.515732 12.822041 35.239107 -10.485905 75.673893 -72.118133 92.82828 86.426946 83.035008 -104.330219 103.173955 -45.374308 101.348796 20.784052 -37.948231 23.012888 179.996267 75.749357 0.003851 158.777536 37.755077 121.27442 72.658309 -12.994903 113.527155 31.848197 -9.183096 150.610614 -0.0 -0.000716 -0.000553 -15.965212 -32.831743 152.180771 16.15998 -52.594036 -26.2906 -98.743455 -44.759169 178.850912
-5.4709 79.9923 -25.073 7.028026 10.040271 8.200034 -7.273882 6.219067 0.489294 3.085628 -8.668467 -32.471747 -23.877716 11.753096 -84.974808 10.294864 25.837267 75.191005 -0.00185 0.0 -0.001513 -0.00185 0.0 -0.001513 -155.460161 -3.227665 161.777901 -42.902806 -9.636903 21.410775 -85.026879 25.809414 -102.21483 68.535558 -75.951569 51.696815 -107.934152 35.149918 63.317626 27.35268 -35.021408 25.551613 60.464011 -70.522599 15.713398 -82.277265 51.986719 68.975748 -160.099029 -4.901291 142.967895 -170.465166 -26.281527 143.872816 -145.119868 0.185369 -179.186943 -152.422666 -24.845045 -175.377539 -144.109749 8.78182 -140.874467 -82.510754 -52.341874 -82.028664 -3.457192 -62.668852 13.249346 85.97 -8.165246 151.907741 84.459754 -38.061888 98.237881 -160.678295 -77.00722 -139.654889 90.496414 38.312598 -51.260553 129.732316 -19.424357 -77.644695 138.092292 5.4945 -114.615534 -13.766173 -9.933295 10.039938 167.298715 -27.767458 -145.260132 46.013197 59.451513 -39.804758 -0.002987 0.605752 -0.189407 -9.669555 7.687547 -0.943255 -12.633655 42.9339 -10.532029 -7.255572 17.07483 -4.065962 -0.0 0.000301 0.001014 -18.31653 -34.873188 -180.0 -24.565186 -76.089524 -7.269937 -164.490628 33.357989 -143.666328 0.000524 -0.0011 -0.000674 -16.189872 -31.004957 -0.0 2.270501 46.611198 -97.954474 91.274999 -64.909612 168.211336
-5.6739 79.8715 -25.8133 7.209002 11.430021 8.039998 -6.11634 2.435912 -134.499834 2.516244 3.978202 102.013172 -10.310125 19.321515 171.154285 -15.257063 12.275022 -176.732715 -0.002041 0.0 -0.002787 -0.002041 0.0 -0.002787 -130.420054 54.549223 134.287764 -2.202947 -0.414275 64.468939 22.416305 60.231585 -153.963076 -177.999349 0.995523 142.991422 -159.654024 2.601242 88.800173 19.303781 -55.293792 22.387789 -140.163654 2.325793 115.87748 1.974668 13.776636 -6.608637 -36.036313 51.722888 29.832784 -169.971589 -25.747171 144.206834 0.004096 1.771409 0.556354 -75.782844 78.820621 89.042118 -124.851245 -29.038238 -122.621177 16.645984 41.518384 6.325963 157.641822 -66.710391 -175.899514 -115.093663 24.226889 86.656463 -86.46546 -34.344687 -77.022238 48.413073 49.991411 -27.903083 0.544031 0.536136 -0.086631 138.869711 -43.042146 -119.019429 90.225108 41.071925 -75.796774 72.960975 53.079591 -51.571254 153.319694 13.628691 -138.862158 -3.232572 0.191822 -0.369741 -0.006297 0.917834 -0.287945 156.191608 -13.742614 -173.48103 163.024064 73.432841 150.728589 147.365842 8.549663 141.50378 -0.003008 -0.00036 -0.004512 -16.371591 -32.511698 -71.549818 -63.530147 24.343938 118.680901 -157.92388 -25.454212 63.457316 179.996085 75.749577 0.002679 159.72317 40.129838 114.782834 53.869439 -8.246009 109.29372 19.537961 25.088752 152.775774
-5.9072 79.7991 -26.5447 7.371962 12.843126 7.930007 -5.686734 4.102259 -95.100767 5.851887 0.456416 62.86851 -16.812383 -0.052731 -7.304331 18.35181 7.627492 -2.128932 -0.000256 -0.0 0.002167 0.00063 -0.0 -0.00283 -158.466837 -30.034022 166.915694 -49.859451 15.871317 3.150638 -171.368372 28.792955 -80.442806 -7.326215 8.16631 -1.333056 -2.608293 2.554659 0.457083 2.934322 -3.009427 -0.61159 -120.31005 25.997549 101.631523 -24.184039 40.589025 10.434667 -160.938767 -7.488063 143.367409 -42.500797 58.272808 36.597279 -145.119524 0.227131 -179.198435 12.039183 34.673899 -5.074817 -145.174482 12.067659 -141.822428 -9.584395 -23.322499 -12.082661 150.168871 21.535545 -155.27607 132.914035 -79.173426 67.767418 -129.977949 -4.592823 -172.039549 48.175989 50.435996 -27.678912 171.705848 -9.388394 -89.949708 38.998524 -23.002186 -5.73205 -60.460711 -70.524068 -15.710298 155.743401 -13.981982 -115.056524 169.089873 -33.247179 -145.375907 4.94612 20.722447 -4.631512 145.119309 0.185812 179.186046 16.091318 -68.330546 37.225293 26.56312 -38.860457 25.607464 114.061967 -42.408703 113.61337 4e-05 0.000395 -5.2e-05 -17.600667 -32.462347 149.415721 49.916758 -65.899054 -25.866477 6.340221 46.332772 -95.894245 179.999673 75.749247 0.000337 160.530639 41.372133 -0.0 -18.278652 50.583121 -131.746263 -82.312125 38.866196 -175.000096
-6.1865000000000006 79.7616 -27.2731 7.423909 14.303541 7.829951 -8.094232 2.080724 180.0 -1.739697 3.403843 148.314749 -23.06573 11.536234 -93.270671 3.308484 25.332108 87.989714 -0.000929 0.0 -0.000483 -0.000929 0.0 -0.000483 -155.460226 -3.22777 161.777572 112.480907 -38.343826 145.173409 166.697545 46.972099 52.230778 179.381043 -1.090436 143.674735 -3.909668 3.81052 0.728317 38.268028 -56.725073 -15.063581 -162.918532 -37.929301 122.630152 -84.565968 56.485436 68.278701 -36.037102 51.723074 29.831819 -153.880762 19.992693 138.633597 -145.099701 -1.521155 -178.650263 -74.403325 -77.998643 -96.05445 -135.820776 -11.890741 -133.183195 -137.091772 -12.802064 -133.961449 -4.209269 -43.443095 8.383761 -89.050331 11.206154 8.017283 97.052663 37.448581 -79.945747 -165.107999 -69.289669 -141.928239 -5.435695 -5.421551 0.582132 116.290414 -0.305703 -105.309466 -28.871184 -48.978427 4.336544 -36.270556 -30.539011 2.076984 151.477553 17.841628 -137.53807 113.933134 58.970978 -104.366834 0.014698 -1.323111 0.416142 154.063684 -65.023238 178.242137 46.956197 -48.669689 45.714906 84.488325 -53.313262 84.900362 0.000444 0.000242 -0.000571 -16.181869 -30.75029 -180.0 10.768289 -72.69045 127.490036 79.411961 40.195579 -0.55591 -0.000772 0.000726 0.000992 -19.370526 -32.974007 105.821796 51.231717 -21.377465 101.078185 105.373426 -7.071163 168.292903
-6.5095 79.77969999999999 -27.983000000000004 7.420025 15.661397 7.60989 -5.624245 4.246303 -96.611426 5.309205 -0.692692 65.417171 -3.849867 12.873862 126.878131 -8.323888 -1.195733 -133.960741 0.0 0.0 0.002648 0.0 0.0 0.002648 -159.221414 -48.028634 170.414307 140.767967 -17.341191 -169.477426 -32.795499 -43.997372 80.211168 0.632793 -9.85171 -0.988507 114.538117 -50.24496 55.722123 -160.905662 -10.676866 116.681319 -100.050608 38.036838 84.486304 -87.170347 53.250217 64.061963 -89.835302 60.702089 81.262814 -179.697995 -48.725849 141.173622 -77.101371 72.9196 95.199983 5.875573 5.474513 -3.908914 -109.124884 -42.332093 -107.211739 -140.107011 -5.632501 -137.311169 -3.445577 -62.740748 13.276287 83.331837 -12.476811 152.941823 97.417487 -39.694651 113.251711 -119.795193 -83.222169 -100.921908 2.708979 2.652065 -0.477927 147.777859 -56.609066 -118.52438 1.162496 1.860582 -0.669804 143.848757 11.392417 -106.768691 160.82577 -7.141645 -143.317228 -11.537181 -24.897506 1.142016 -0.000213 0.063705 -0.020936 156.534468 -27.665683 -175.091698 157.328412 57.246153 150.513717 -10.465729 26.383149 -4.403429 179.996411 75.750098 0.003703 158.493233 45.577453 95.52679 79.328818 12.408438 79.674484 -163.493779 20.017759 174.496578 -0.007272 0.000545 -0.007273 -19.826443 -33.011454 105.369928 51.084781 -23.552757 85.505582 -31.258432 31.306335 174.939191
